<svg id="Layer_1" data-name="Layer 1" xmlns="http://www.w3.org/2000/svg" viewBox="0 0 1006.34 160">
    <defs>
        <style>.cls-1{fill:#706f6f;}.cls-2{fill:url(#linear-gradient);}</style>
        <linearGradient id="linear-gradient" x1="197.36" y1="0.73" x2="196.15" y2="163.01"
                        gradientUnits="userSpaceOnUse">
            <stop offset="0" stop-color="#662483"/>
            <stop offset="1" stop-color="#1d71b8"/>
        </linearGradient>
    </defs>
    <path class="cls-1"
          d="M279.13,94v-28l.06,0a5.63,5.63,0,0,0-2.72-3.89L268,57.15v-.22l-5.58-3.21-7.27-4.18-1.62-.93,13.12-7.55a13.15,13.15,0,0,0-1.1-1.93l-13.27,7.64V29.84l-.09-.06V19.94a5.59,5.59,0,0,0-2.8-4.85l-15.62-9L226.7,2a5.61,5.61,0,0,0-5.15-.23l-9,5.16h0L207,10.15l-2.74,1.59-6.33,3.64V.05a12.84,12.84,0,0,0-2.32,0V15.38l-9.08-5.22-.37-.22-5.22-3-9-5.2a5.61,5.61,0,0,0-5.09.26L150,11.74l-5.81,3.35a5.62,5.62,0,0,0-2.8,4.85v9.85l-.19.1V46.71L128,39.13a14.07,14.07,0,0,0-1.09,1.93l13.11,7.55-1.61.93-7.28,4.18-5.57,3.21v.22l-2.73,1.57-5.8,3.35a5.62,5.62,0,0,0-2.8,4.85V93.07a5.62,5.62,0,0,0,2.8,4.85l8.53,4.92V103l5.57,3.21,8.89,5.11-8.3,4.77-4.85,2.8a13.67,13.67,0,0,0,1.08,1.94l4.85-2.8,8.37-4.81V130.1l.19.11v9.85a5.62,5.62,0,0,0,2.8,4.85L166.83,158a5.74,5.74,0,0,0,1.95.68,5.55,5.55,0,0,0,2.62-.21h0l.15-.1,9.29-5.34,5.59-3.21,7.53-4.34,1.63-.93V160c.38,0,.76.05,1.15.05s.78,0,1.17-.05V144.52l1.62.93,7.54,4.34,5.59,3.21,9.45,5.44a4.83,4.83,0,0,0,.91.22,6.23,6.23,0,0,0,.86.07,5.6,5.6,0,0,0,2.8-.75l18.82-10.86,3.82-2.21h0l.3-.18h0l.29-.2,0,0,.26-.22,0,0,.25-.23h0a2.73,2.73,0,0,0,.23-.25l0,0,.2-.25,0,0,.18-.26a.05.05,0,0,0,0,0l.18-.27v0a5,5,0,0,0,.32-.66,5.56,5.56,0,0,0,.43-2.14v-9.85l.09-.05v-17l8.48,4.87,4.85,2.8a14.67,14.67,0,0,0,1.07-1.94l-4.86-2.8-8.29-4.77,8.89-5.11L268,103v-.12l4.7-2.72,3.82-2.2a0,0,0,0,1,0,0l.3-.19h0l.28-.2,0,0,.26-.22h0a2.73,2.73,0,0,0,.25-.23v0l.23-.25,0,0a2.56,2.56,0,0,0,.2-.26l0,0,.18-.26,0,0a2.46,2.46,0,0,0,.17-.27s0,0,0,0a4,4,0,0,0,.32-.66,5.54,5.54,0,0,0,.37-1.28ZM276.8,66.53V93.37L268,88.27l-5.58-3.2L253.47,80l8.9-5.13,5.58-3.2Zm-.54-2.25L268,69.06l-5.58,3.21L252.23,78.1V50.45l.64.37,9.5,5.47,5.58,3.2Zm-80.65,45.06-.12-.07h0l-1.49-.85-15.7-9-6.54-3.76L194,82.83l1.66-1Zm-1.18,2-.45.26-23.19,13.34-.26.15V97.48l.54.3,0,0a.05.05,0,0,1,0,0l10,5.78L194,111l.52.3Zm-50.91-60.7.08,0,23.54,13.53h0l.14.08h0l-1.65.94-22,12.65-.12.07Zm82.78,45-.05,0,.07,0L249.83,82l.08-.05v27.23ZM200.74,80.93,199.15,80,199,80l9.41-5.42,14.16-8.15h0l.15-.09V93.58a0,0,0,0,1,0,0ZM198,78h0l-.1.07V50.55L220.1,63.3l1.7,1-7,4Zm27-11.78.6.35L249,80,225.08,93.72ZM249.91,77.9h0l-22-12.66-1.65-.94h0l.06,0h0l0,0,23.42-13.48.12-.07ZM247.3,47.6l1.74,1-24,13.78V34.83ZM222.76,62.28l-.44-.26-23.13-13.3-.15-.09,4.3-2.48L222.64,35l.12-.06ZM221.83,33l-15.09,8.68-8.8,5.07h0V19.2ZM195.61,46.71h0l-10.3-5.93L171.7,33,195.61,19.2ZM170.9,35.05l16.85,9.7,6.75,3.88h0L171.21,62l-.39.23-.29.17V34.84Zm-2.69,58.53L144.51,80l23.34-13.43.36-.2Zm0-31.33L144.5,48.61l1.74-1,22-12.64ZM143.52,81.94l.19.11,23.58,13.56-23.63,13.6-.14.07Zm1,29.34,23.71-13.64v27.28Zm26-45.13.27.16,11.81,6.79L194.51,80l-.13.08-1.59.9-22,12.68-.26.14ZM195.61,78,195.5,78,176.16,66.82l-4.42-2.54,1.69-1,22.18-12.76Zm2.32,3.86,1.65,1L221.8,95.61l-4.45,2.55-2.21,1.28-15.59,9-1.45.84h0l-.16.09Zm1.62,29.68-.44-.25-.07,0,.51-.29,13.84-8,9.15-5.25s0,0,0,0l.2-.11v27.3h0ZM225.08,97.5l24,13.78-24,13.79Zm24.83-78.15V46.56h0l-.39-.22L226.28,33h0l10.13-5.82L242,23.91l7.83-4.5ZM225.08,3.57,249,17.33l-9.23,5.3-5.59,3.21-9.1,5.24ZM204.53,14.13l.71-.4,4-2.29,5.58-3.21,7.8-4.49.16-.09V30.93h0L199.1,17.33l0,0Zm-34-10.62.37.21h0l7.79,4.49,5.58,3.21,5.14,3L194,17l0,0,.49.27-.06,0L170.79,30.92l-.26.15Zm-2.32.19V30.94l-8.86-5.1-5.58-3.21-9.23-5.3ZM143.52,19.3l.14.07,7.89,4.55,5.58,3.21L167.24,33h0L144,46.33l-.38.21-.12.07ZM125.59,59.49l5.57-3.2,9.5-5.47.54-.31V78l-10-5.77-5.57-3.21-8.32-4.78Zm0,12.12,5.57,3.21L140.07,80l-8.91,5.12-5.57,3.21-9.07,5.22V66.39Zm-8.32,24,8.32-4.78,5.57-3.21,10-5.78v27.54l-10-5.79-5.57-3.2Zm26.25,45v-27.3l.14.07,23.58,13.57h0L157,132.82,151.46,136l-7.82,4.49Zm24.69,15.82-23.86-13.73,9.34-5.37,5.58-3.21,8.94-5.15Zm26.26-13.8-.49.28-9.76,5.62-5.58,3.21-7.83,4.51-.28.15V128.82l.37.21,15.64,9,7.44,4.27.51.29Zm1.13-1.92-1.62-.93-10.75-6.19-11.53-6.64L194,114.12l1.63-.93v27.5Zm2.33-27.5,1.62.93,22.28,12.81-11.52,6.64-10.76,6.19-1.61.93h0Zm1.12,29.41.5-.29,5.4-3.1L222.64,129l.12-.06v27.28l-7.87-4.52-5.58-3.21-9.76-5.62-.37-.21Zm26,13.94V128.81l9.19,5.28,5.58,3.22,9.34,5.37Zm24.83-16h0l-7.83-4.5-5.59-3.21-10.2-5.88h0l23.52-13.54.1,0Zm18-40.14-5.58,3.2-10.14,5.84V81.8l10.14,5.83L268,90.84l8.31,4.78Z"/>
    <path class="cls-1"
          d="M279.19,66a5.63,5.63,0,0,0-2.72-3.89L268,57.15l-5.58-3.21-1.52-.89-5.92-3.42L253.84,49a5.67,5.67,0,0,0-2.16-.71l0-.08a5.51,5.51,0,0,0,.43-2.13V19.94a5.59,5.59,0,0,0-2.8-4.85l-15.62-9L226.7,2a5.61,5.61,0,0,0-5.15-.23,3.19,3.19,0,0,0-.45.23l-8.52,4.93h0L207,10.15l-2.74,1.59-5.8,3.35a5.48,5.48,0,0,0-1.7,1.51,5.44,5.44,0,0,0-1.69-1.51l-8.54-4.93-.37-.22-5.2-3-1.51-.87-7-4.06a5,5,0,0,0-.52-.26,5.61,5.61,0,0,0-5.09.26L150,11.74l-5.81,3.35a5.62,5.62,0,0,0-2.8,4.85V46.08a5.55,5.55,0,0,0,.47,2.21,5.62,5.62,0,0,0-2.16.71l-1.1.63-7.44,4.3-5.57,3.22-2.73,1.57-5.8,3.35a5.62,5.62,0,0,0-2.8,4.85V93.07a5.62,5.62,0,0,0,2.8,4.85l8.53,4.92,5.57,3.22L139.7,111a5.36,5.36,0,0,0,1.94.68l.22,0a5.64,5.64,0,0,0-.47,2.23v26.14a5.62,5.62,0,0,0,2.8,4.85L166.83,158a5.74,5.74,0,0,0,1.95.68,5.55,5.55,0,0,0,2.62-.21h0a5.81,5.81,0,0,0,1-.46l8.52-4.92,5.57-3.22,4.72-2.72,2.73-1.57,1.09-.64h0l.3-.18h0l.21-.15.07-.05,0,0,.26-.22s0,0,0,0a1.75,1.75,0,0,0,.24-.23h0a2.73,2.73,0,0,0,.23-.25l0,0,.2-.25,0,0,0,0a5.32,5.32,0,0,0,1.17,1.15,3.1,3.1,0,0,0,.53.36l1.09.63,7.45,4.3,5.57,3.22L221.1,158a5.9,5.9,0,0,0,1,.46,4.83,4.83,0,0,0,.91.22,6.23,6.23,0,0,0,.86.07,5.6,5.6,0,0,0,2.8-.75l18.82-10.86,3.82-2.21h0l.3-.18h0l.29-.2,0,0,.26-.22,0,0,.25-.23h0a2.73,2.73,0,0,0,.23-.25l0,0,.2-.25,0,0,.18-.26a.05.05,0,0,0,0,0l.18-.27v0a5,5,0,0,0,.32-.66,5.56,5.56,0,0,0,.43-2.14V113.92a5.63,5.63,0,0,0-.46-2.23,5.51,5.51,0,0,0,2.16-.71l8.53-4.92,5.58-3.22,4.7-2.72,3.82-2.2a0,0,0,0,1,0,0l.3-.19h0l.28-.2,0,0,.26-.22h0a2.73,2.73,0,0,0,.25-.23v0l.23-.25,0,0a2.56,2.56,0,0,0,.2-.26l0,0,.18-.26,0,0a2.46,2.46,0,0,0,.17-.27s0,0,0,0a4,4,0,0,0,.32-.66,5.54,5.54,0,0,0,.37-1.28,6,6,0,0,0,.07-.85V66.92A5.2,5.2,0,0,0,279.19,66ZM252.14,50.65l.09,0,.09,0h0l.17.07h0a1.51,1.51,0,0,0,.17.1h0l5.77,3.33,3.87,2.23L268,59.7,275.37,64l0,0a1.37,1.37,0,0,1,.2.13.47.47,0,0,1,.09.06l.16.13,0,0L268,69l-5.58,3.22-10,5.77a.22.22,0,0,1-.16,0,.17.17,0,0,1-.09-.15Zm-29.4,74.26a.16.16,0,0,1-.2,0l-23-13.28-.51-.29a.18.18,0,0,1,.07,0s0,0,.07-.06,0,0,0,0a1.1,1.1,0,0,1,.14-.09l0,0,.16-.1h0l5.67-3.27,8.15-4.71,8.82-5.08a1.18,1.18,0,0,1,.19-.11h0l.13,0s0,0,0,0a.18.18,0,0,1,.2.06.19.19,0,0,1,0,.1v26.89a.17.17,0,0,1,0,.1S222.75,124.9,222.74,124.91ZM197.87,82.2a.14.14,0,0,1,.06-.12.16.16,0,0,1,.19,0l1.46.84,22,12.73-.15.13h0a1.3,1.3,0,0,1-.15.1l0,0-.17.1-3.75,2.17-2.21,1.28-15.59,9-1.09.63-.2.11h0l-.15.07h0a.15.15,0,0,1-.16,0,.14.14,0,0,1-.06-.12Zm24.92,11a.28.28,0,0,0,0,.09s0,.08,0,.12v.07s0,0,0,0a0,0,0,0,1,0,0,.36.36,0,0,1,0,.1L200.68,81l-1.46-.84a.18.18,0,0,1,0-.29l9.22-5.32,14.08-8.13.08,0h0a.18.18,0,0,1,.15.09s0,0,0,.06,0,.26,0,.39Zm0-58.15a.18.18,0,0,1,0,.11V62.35l-.16-.06-.07,0-.11,0-.08,0h0l-.14-.08h0l-15.63-9-7-4-.09,0-.13-.08-.12-.08a.13.13,0,0,1,0-.07.07.07,0,0,1,0-.06.19.19,0,0,1,.08-.15l4.09-2.36,19.2-11.08.1,0A.17.17,0,0,1,222.76,35.1Zm2.24.11a.15.15,0,0,1,.08-.13.14.14,0,0,1,.17,0L247.14,47.7l1.62.94-.15.12h0a.78.78,0,0,1-.15.1l0,0-.07.05-.11,0L231.4,58.72l-5.8,3.35-.14.08-.06,0h0l-.16.07a.14.14,0,0,1-.15,0,.15.15,0,0,1-.08-.13Zm0,31.7a1.34,1.34,0,0,1,0-.2v0c0-.06,0-.14,0-.2h0c0-.07,0-.13,0-.19h0l.5.29,23,13.27a.15.15,0,0,1,0,.28L225.08,93.7h0l0-.18a.06.06,0,0,1,0,0c0-.06,0-.11,0-.17v0a1.28,1.28,0,0,1,0-.19h0Zm0,30.73a.2.2,0,0,1,.08,0l.1,0h0l.17.08,0,0,.18.09h0L248.23,111h0l0,0,.2.12.08.07a1.09,1.09,0,0,1,.17.13s0,0,0,0l-23.51,13.57a.14.14,0,0,1-.17,0,.16.16,0,0,1-.08-.14Zm17.07,7.23L226.7,96a.12.12,0,0,1-.08,0l-.14-.09s-.07-.06-.12-.09a.16.16,0,0,1-.06-.13.31.31,0,0,1,0-.08.34.34,0,0,1,.06-.06l23.3-13.45a.16.16,0,0,1,.15,0,.13.13,0,0,1,.08.08.19.19,0,0,1,0,.08v27.14l-.17-.07-.07,0-.1-.06a.11.11,0,0,1-.08,0l-.11,0-.05,0a0,0,0,0,0,0,0Zm7.85-27.08s0,0,0,.07,0,0,0,0a.17.17,0,0,1-.21,0L227.79,65.3l-1.62-.93.09-.08.05-.05h0l0,0,.12-.08,0,0,.07,0,.11,0,18.82-10.87,3.82-2.2h0l.1-.06.08,0h0l.16-.07a.14.14,0,0,1,.09,0,.17.17,0,0,1,.12.08.31.31,0,0,1,0,.08v26.9Zm-.26-58.37a.16.16,0,0,1,.15,0,.16.16,0,0,1,.1.13c0,.13,0,.26,0,.4V46.09a.09.09,0,0,1,0,0v.12a.25.25,0,0,1,0,.09v.12s0,.05,0,.08l0,.17-.52-.3-23-13.27a.17.17,0,0,1-.08-.18v0a.22.22,0,0,1,.08-.09l10-5.76,5.58-3.22ZM225,3.66l.08,0,.1,0h0l.17.07,0,0,.19.1,5.77,3.34L248.24,17l0,0,.2.13.08.06.17.13,0,0-9,5.23-5.57,3.21L225.25,31a.15.15,0,0,1-.17,0,.18.18,0,0,1-.08-.14ZM199.1,17.33l.08-.07s0,0,0,0l.14-.1a.05.05,0,0,1,0,0l.18-.11,5-2.87.71-.4,4-2.3,5.58-3.21,7.42-4.29a.69.69,0,0,1,.19-.1,0,0,0,0,1,0,0l.15-.07h0a.16.16,0,0,1,.16.07.17.17,0,0,1,0,.1V30.8a.19.19,0,0,1,0,.1l0,0a.17.17,0,0,1-.2,0L199,17.38Zm-1.23,2.61a1.7,1.7,0,0,1,0-.22v0a1.23,1.23,0,0,1,0-.19h0c0-.06,0-.1,0-.14s0,0,0-.06l23.5,13.57a.16.16,0,0,1,0,.28l-14.7,8.5-8.8,5.08h0v0l0-.14v0a1,1,0,0,1,0-.16v-.06a1.41,1.41,0,0,1,0-.2Zm0,30.71h.06l.12.06h0l.16.07h0s0,0,0,0l.15.09L220,63.36l1.1.64a.27.27,0,0,1,.1.06l.14.08.08.06.17.13,0,0-6.86,4-16.65,9.61H198a.12.12,0,0,1-.1,0,.16.16,0,0,1-.06-.12Zm-2.21-30.71v26.2a.45.45,0,0,1,0,.12v.09s0,.08,0,.12v.08s0,.08,0,.11a.09.09,0,0,1,0,.05h0l-10.3-5.94-13.21-7.63a.17.17,0,0,1,0-.29l23.3-13.44a.16.16,0,0,1,.22,0,.08.08,0,0,1,0,.07A2.6,2.6,0,0,1,195.66,19.94ZM194,111h0l0,0,.2.12.08.07.15.11,0,0,.05,0-.52.3-23,13.27a.16.16,0,0,1-.2,0,.18.18,0,0,1-.06-.13V97.64l.19.07h0a.75.75,0,0,0,.13.06l0,0a.05.05,0,0,1,0,0l.18.1,1.57.9,8.29,4.78ZM143.6,50.65a1,1,0,0,1,.18.07h0l.16.07h0s0,0,0,0l.15.09L166.83,64l.11.06a.91.91,0,0,1,.13.08l.07,0h0l.12.09,0,0,0,0-1.63.93L143.85,77.94a.16.16,0,0,1-.21-.06.11.11,0,0,1,0-.09Zm50.89-2-.14.12h0l-.15.1,0,0-.07.05-.1,0-16.84,9.72-5.81,3.35h0l-.12.07-.07,0h0l-.15.07a.16.16,0,0,1-.15,0,.17.17,0,0,1-.09-.14V35.21a.16.16,0,0,1,.17-.16.13.13,0,0,1,.09,0l16.76,9.68ZM145,80.14a.17.17,0,0,1,0-.29l23-13.27.26-.16,0,0a.17.17,0,0,1,.25.13,2.47,2.47,0,0,1,0,.39V93.07s0,0,0,.06v.12s0,.06,0,.09,0,.08,0,.12,0,.05,0,.07a1,1,0,0,1,0,.18l-.26-.15Zm23.57-17.79-.17-.06-.07,0a.2.2,0,0,0-.08,0h0a.2.2,0,0,1-.08,0h0l-.16-.1-15.63-9-7-4-.09,0-.13-.08-.12-.08a.18.18,0,0,1-.06-.14.19.19,0,0,1,.08-.14l1.41-.82L168.21,35.1l.06,0a.17.17,0,0,1,.26.14ZM143.6,109.1V82.2a.15.15,0,0,1,.11-.15.17.17,0,0,1,.14,0l23.51,13.57-.15.13h0a.78.78,0,0,1-.15.1l0,0-.18.1-3.75,2.17-18.89,10.91-.19.11h0l-.16.07a.15.15,0,0,1-.17,0A.11.11,0,0,1,143.6,109.1Zm1.18,2.26a.53.53,0,0,1,.14-.11l0,0,.14-.09,0,0,.18-.11,5.67-3.27,17-9.79a1.86,1.86,0,0,1,.19-.11,0,0,0,0,0,0,0l.07,0,.09,0a.17.17,0,0,1,.23.16v26.89a.17.17,0,0,1-.26.15l-.06,0ZM194.3,79.85a.15.15,0,0,1,.08.18.13.13,0,0,1-.08.1l-1.45.85-22,12.73s0-.07,0-.1a.31.31,0,0,1,0-.08v0a1,1,0,0,1,0-.17.07.07,0,0,1,0,0c0-.07,0-.14,0-.2V66.92c0-.07,0-.14,0-.21v0l0-.2h0l0-.16v0l11.81,6.82ZM170.92,3.73h0l.16.07,0,0,.18.1,5.78,3.34,1.65,1,5.57,3.21,5.13,3L194,17l0,0,.2.13.08.06.15.12h0l.05,0L171,31a.17.17,0,0,1-.2,0,.14.14,0,0,1-.06-.12V3.66l.17.06Zm-2.39.18V30.8a.18.18,0,0,1-.26.15l-.06,0-8.82-5.09-5.57-3.21-9-5.23a.55.55,0,0,1,.14-.12s0,0,0,0l.14-.1a.05.05,0,0,1,0,0l.18-.11L151,13.73l17-9.8a.87.87,0,0,1,.19-.1h0l.07,0a.32.32,0,0,0,.09,0A.16.16,0,0,1,168.53,3.91ZM143.66,19.29l8,4.59,5.56,3.22,10,5.76a.18.18,0,0,1,.07.09v0a.14.14,0,0,1-.08.17l-23,13.28-.52.3a1.1,1.1,0,0,0,0-.18v0c0-.06,0-.11,0-.16v-.06a1.28,1.28,0,0,1,0-.19V19.94a1.7,1.7,0,0,1,0-.22v0c0-.06,0-.13,0-.19a0,0,0,0,1,0,0s0-.08,0-.12ZM116.53,93.71l0-.18v0a1,1,0,0,1,0-.17.11.11,0,0,0,0,0V66.92a1.48,1.48,0,0,1,0-.21v0a1.36,1.36,0,0,1,0-.2h0a.31.31,0,0,1,0-.08.41.41,0,0,1,0-.11l9.06,5.23,5.57,3.22L140,79.85a.16.16,0,0,1,0,.28l-8.88,5.13-5.57,3.22Zm24.86,15.63-.16-.07h-.07l-.11-.06a.11.11,0,0,1-.08,0l-.11,0a.13.13,0,0,0-.06,0l-9.64-5.56-5.57-3.23L118.17,96a.12.12,0,0,1-.08,0l-.15-.09-.11-.09a.16.16,0,0,1-.06-.12.17.17,0,0,1,.08-.15L125.59,91l5.57-3.22,10-5.76h.06a.15.15,0,0,1,.19.16Zm0-31.55a.17.17,0,0,1-.19.16h-.06l-10-5.76L125.59,69l-8-4.59a1.79,1.79,0,0,1,.14-.13h0l.13-.1,0,0,.18-.1,5.66-3.27,1.76-1,5.57-3.22,9.64-5.56h0l.18-.1h0a.69.69,0,0,1,.15-.07h0a.17.17,0,0,1,.19.16Zm2.27,62.92,0-.19s0,0,0,0,0-.12,0-.17v0a1.48,1.48,0,0,1,0-.21V113.92a1.48,1.48,0,0,1,0-.21v0c0-.06,0-.13,0-.19a0,0,0,0,1,0,0s0-.08,0-.11v-.08l23.51,13.57a.1.1,0,0,1,.07.08h0a.17.17,0,0,1-.07.2l-10,5.76-5.57,3.21Zm24.87,15.62a.85.85,0,0,1-.17-.06l-.07,0-.08,0,0,0-.08,0-.11-.06-.06,0L145.3,143l-.08-.05-.14-.09-.12-.09a.16.16,0,0,1-.06-.13.17.17,0,0,1,.08-.14l8.84-5.11,5.58-3.22,8.81-5.08.06,0a.17.17,0,0,1,.26.14Zm2.79-.26-.19.1h0a.51.51,0,0,1-.15.07.15.15,0,0,1-.16,0,.18.18,0,0,1-.08-.14v-26.9a.17.17,0,0,1,.17-.16.13.13,0,0,1,.09,0l15.55,9,7.44,4.29.49.28h0l-.14.12h0l-.15.12,0,0-.16.1h0l-3.75,2.16-5.9,3.4-5.57,3.22Zm24.34-15.94a.49.49,0,0,1,0,.12v.09s0,.08,0,.11v.08c0,.05,0,.08,0,.12a.08.08,0,0,1,0,0v0l-1.62-.94-10.75-6.2-11.14-6.43a.17.17,0,0,1,0-.29L194,114.21l1.41-.81a.17.17,0,0,1,.22,0,.1.1,0,0,1,0,.07,2.8,2.8,0,0,1,0,.4Zm0-30.79,0,0-.12,0h-.07l-.1-.06a.11.11,0,0,1-.08,0l-.11,0-.06,0-.75-.43-.34-.2-15.7-9.07L172.44,96a.12.12,0,0,1-.08,0l-.14-.09a.54.54,0,0,1-.12-.09h0a.16.16,0,0,1,0-.27L194,82.9l1.46-.85a.18.18,0,0,1,.2,0,.21.21,0,0,1,0,.13Zm0-31.55a.18.18,0,0,1,0,.12.14.14,0,0,1-.11,0,.19.19,0,0,1-.1,0L176.16,66.82l-4.25-2.45a.89.89,0,0,1,.14-.13h0l.14-.1a.08.08,0,0,1,0,0l.07,0,.11,0,1.09-.64,17.72-10.23,3.82-2.2h0l.09-.05.09-.06h0l.16-.07a.17.17,0,0,1,.18,0,.21.21,0,0,1,0,.12Zm2.24,62.73v0a1.11,1.11,0,0,1,0-.17v0a1.48,1.48,0,0,1,0-.21V113.92a1.48,1.48,0,0,1,0-.21v0a1.23,1.23,0,0,1,0-.19h0l0-.14a.43.43,0,0,1,0,0l1.61.93,21.89,12.64a.17.17,0,0,1,0,.29l-11.13,6.43-10.76,6.2-1.61.94v-.05Zm24.89,15.81-.16-.06-.07,0-.11-.05-.08,0-.11-.06,0,0-7.42-4.29-5.58-3.22L199.57,143h0l-.06,0-.14-.09-.12-.09s0-.05,0-.09a0,0,0,0,1,0,0,.18.18,0,0,1,.08-.15l.3-.18,5.4-3.11,17.59-10.16.1,0a.14.14,0,0,1,.12.08.14.14,0,0,1,0,.09ZM225,129.19a.17.17,0,0,1,.08-.13.15.15,0,0,1,.17,0l8.88,5.12,5.57,3.22,9.06,5.23-.15.12h0a.88.88,0,0,1-.15.12l0,0-.17.11-3.75,2.16L225.6,156.07l-.2.1h0a.46.46,0,0,1-.16.07.14.14,0,0,1-.15,0,.18.18,0,0,1-.08-.14Zm24.93,10.87a.17.17,0,0,1,0,.07v.12a.28.28,0,0,1,0,.09v.11s0,.05,0,.08l0,.18-8-4.6-5.58-3.21-10-5.76a.2.2,0,0,1-.08-.2h0a.11.11,0,0,1,.07-.08l23.3-13.45a.16.16,0,0,1,.15,0,.17.17,0,0,1,.1.13c0,.14,0,.27,0,.4Zm2.21-31V82.2a.15.15,0,0,1,.09-.15.22.22,0,0,1,.16,0l10,5.77L268,91l7.94,4.58s-.1.08-.14.13h0a1.3,1.3,0,0,1-.15.1l0,0-.18.1-3.75,2.17L268,100.29l-5.58,3.22-9.64,5.56-.2.11h0l-.15.07a.22.22,0,0,1-.14,0A.15.15,0,0,1,252.14,109.1Zm24.92-16a.49.49,0,0,1,0,.12v.09a.49.49,0,0,0,0,.12.17.17,0,0,1,0,.07l0,.18L268,88.48l-5.58-3.22-8.88-5.12a.17.17,0,0,1,0-.29l8.88-5.12L268,71.51l8.84-5.11a.17.17,0,0,1,.25.13c0,.13,0,.26,0,.39Z"/>
    <path class="cls-2"
          d="M266.6,41.06a13.15,13.15,0,0,0-1.1-1.93,14.11,14.11,0,0,0-4.62-4.3l-8.65-5-.09-.06-2.21-1.27,0,0L242,23.91l0,0-2.16-1.25-.06,0-14.63-8.45-.08,0-2.21-1.28,0,0-8-4.59h0l-2.21-1.28h0l-8.74-5.05a14,14,0,0,0-5.9-1.84,12.84,12.84,0,0,0-2.32,0,13.94,13.94,0,0,0-5.9,1.84L181,6.94h0l-2.19,1.27h0l-8,4.61-.2.12-2,1.16-.32.18-14.39,8.31,0,0-2.15,1.25-.07,0-8,4.59-.08,0-2.13,1.24-.19.1-8.55,4.94a14.2,14.2,0,0,0-7.06,12.22v65.89a14,14,0,0,0,1.31,5.91,13.67,13.67,0,0,0,1.08,1.94,14.17,14.17,0,0,0,4.67,4.37l8.55,4.94.19.11,2.13,1.23.08,0,7.86,4.55.16.08,2.07,1.2.13.08,14.39,8.31.32.18,2,1.16.2.11,7.91,4.57.11.06,2.11,1.22.1.06,8.75,5.05a14.23,14.23,0,0,0,5.9,1.84c.38,0,.76.05,1.15.05s.78,0,1.17-.05a14.32,14.32,0,0,0,5.9-1.84l8.74-5.05.11-.06,2.11-1.22.1-.06,7.87-4.54,0,0,2.21-1.28.08,0,14.62-8.45.15-.08,2.07-1.2.15-.08,7.84-4.53,0,0,2.21-1.27.09-.05,8.65-5a14.11,14.11,0,0,0,4.68-4.37,14.67,14.67,0,0,0,1.07-1.94,13.88,13.88,0,0,0,1.32-5.91V47.05A14.08,14.08,0,0,0,266.6,41.06ZM135.44,39.65l5.76-3.33.19-.11L143.52,35l.08-.06,13.53-7.8.05,0,2.17-1.26,0,0,8.82-5.09.32-.19,2-1.15.2-.12,13.58-7.83h0l2.21-1.27,6-3.45a8.59,8.59,0,0,1,3.11-1.07,9,9,0,0,1,2.32,0A8.59,8.59,0,0,1,201,6.71l6,3.44,2.21,1.28h0l13.54,7.81,0,0L225,20.54l.08.05,9.06,5.23,0,0,2.17,1.26.06,0,13.5,7.8h0l2.21,1.28.09.06,5.87,3.38a8.93,8.93,0,0,1,1.33,1l-7.2,4.16-.09.05-2.21,1.27h0l-.4.23-.16.09-2,1.18-.16.1L225.08,60.43l-.08,0-2.21,1.28,0,0-.44.25-.1.06L220.1,63.3l-.1.06L198.16,76a1.67,1.67,0,0,1-.23.12l-.06,0a2.74,2.74,0,0,1-2.21,0l0,0c-.08,0-.16-.08-.24-.12L173.53,63.36l-.1,0-2.11-1.23-.11-.06-.48-.27-.2-.12-2-1.15-.32-.19-21.82-12.6-.15-.08-2.06-1.19-.16-.09-.42-.24h0l-.08,0-2.13-1.23-.19-.11-7.09-4.1A8.17,8.17,0,0,1,135.44,39.65ZM194,154a8.24,8.24,0,0,1-1.48-.68l-6-3.44-.08-.05-2.13-1.23-.1-.05-13.49-7.79-.2-.12-2-1.15-.32-.19-8.81-5.09-.13-.07-2.08-1.2-.15-.08-13.44-7.76-.08-.06-2.13-1.22-.19-.11-5.76-3.33a8.79,8.79,0,0,1-2.61-2.35,9,9,0,0,1-1.08-1.94,8.35,8.35,0,0,1-.59-3.11V47.05a8,8,0,0,1,.16-1.62l7.12,4.11.16.09,2.06,1.19.16.09.38.22.19.11,2.13,1.23.08.05,22,12.71.11.07,2.12,1.22.1.06.26.15.32.19,2,1.15.2.11L192.58,80.8l.21.13.06,0a2.72,2.72,0,0,1,1.1,1.85s0,0,0,.07a1.63,1.63,0,0,1,0,.31Zm68.39-41a8.36,8.36,0,0,1-.6,3.11,8.14,8.14,0,0,1-1.06,1.94,8.67,8.67,0,0,1-2.61,2.35l-5.87,3.39-.09,0-2.21,1.28h0l-13.43,7.75-.14.08-2.07,1.19-.14.08-9,5.23-.08,0-2.21,1.28h0l-13.45,7.77-.1.05-2.12,1.23-.09.05-6,3.44a8.66,8.66,0,0,1-1.49.68V83.21a1.73,1.73,0,0,1,0-.32s0,0,0-.06a2.76,2.76,0,0,1,1.1-1.85l.06,0,.2-.13,21.82-12.59,0,0L225,66.92h0l.08,0,.5-.28.1-.06,2.11-1.22.12-.07,22-12.7h0l2.21-1.27.09-.06.48-.28.16-.09,2.06-1.19.17-.09,7.11-4.11a8,8,0,0,1,.16,1.62Z"/>
    <path class="cls-1"
          d="M20.21,101v34.56H0V37.43H38.26a44.34,44.34,0,0,1,19.44,4A29.79,29.79,0,0,1,70.6,53,32,32,0,0,1,75.11,69.9q0,14.41-9.87,22.73T37.93,101Zm0-16.37h18q8,0,12.23-3.77T54.7,70q0-7.2-4.24-11.65T38.73,53.8H20.21Z"/>
    <path class="cls-1" d="M342.41,119.28h42.91v16.23H322.2V37.43h20.21Z"/>
    <path class="cls-1" d="M480.91,81.62l20.41-44.19h22.09l-32.2,62.51v35.57H470.67V99.94l-32.2-62.51h22.16Z"/>
    <path class="cls-1"
          d="M677,123.12q-5.46,6.52-15.43,10.13a64.38,64.38,0,0,1-22.09,3.61q-12.74,0-22.33-5.56a37,37,0,0,1-14.82-16.13Q597.11,104.6,597,90.31V83.64q0-14.69,4.95-25.43A36.65,36.65,0,0,1,616.2,41.78q9.33-5.7,21.86-5.7,17.46,0,27.29,8.32T677,68.62H657.33q-1.35-8.42-6-12.33t-12.7-3.91q-10.3,0-15.7,7.75t-5.45,23v6.26q0,15.43,5.86,23.31t17.18,7.88q11.38,0,16.23-4.85V98.87H638.4V84H677Z"/>
    <path class="cls-1"
          d="M842.92,88.69q0,14.49-5.12,25.4a38.6,38.6,0,0,1-14.66,16.84,43.28,43.28,0,0,1-43.61.07,38.93,38.93,0,0,1-14.82-16.74q-5.26-10.87-5.32-25V84.38q0-14.47,5.22-25.49A38.79,38.79,0,0,1,779.36,42a43.19,43.19,0,0,1,43.58,0A38.88,38.88,0,0,1,837.7,58.89q5.22,11,5.22,25.42Zm-20.48-4.44q0-15.44-5.53-23.44t-15.76-8q-10.17,0-15.7,7.91t-5.59,23.21v4.78q0,15,5.53,23.31t15.9,8.29q10.17,0,15.62-8T822.44,89Z"/>
    <path class="cls-1" d="M1006.34,135.51H986.13L946.79,71v64.53H926.58V37.43h20.21L986.2,102.1V37.43h20.14Z"/>
</svg>